<svg xmlns="http://www.w3.org/2000/svg" width="{{ .width }}" height="{{ .height }}" viewBox="0 0 568 501" fill="currentColor"{{ with .class }} class="{{ . }}"{{ end }}{{ with .title }} aria-label="{{ . }}"{{ end }}>
  <path d="M123.121 33.6637C188.241 82.5526 258.281 181.681 284 234.873C309.719 181.681 379.759 82.5526 444.879 33.6637C491.866 -1.61183 568 -28.9064 568 49.9902C568 65.2346 558.055 187.879 552.222 210.769C534.606 279.233 466.391 296.232 405.314 285.837C507.217 304.068 536.667 375.523 472.667 446.977C352.038 581.1 295.394 440.806 284.514 413.058C283.698 410.942 283.174 409.622 284 409.622C284.826 409.622 284.302 410.942 283.486 413.058C272.606 440.806 215.962 581.1 95.3333 446.977C31.3333 375.523 60.7833 304.068 162.686 285.837C101.609 296.232 33.3943 279.233 15.7782 210.769C9.94525 187.879 0 65.2346 0 49.9902C0 -28.9064 76.1345 -1.61183 123.121 33.6637Z"/>
</svg>
