<svg xmlns="http://www.w3.org/2000/svg" width="{{ .width }}" height="{{ .height }}" viewBox="0 0 24 24" fill="currentColor"{{ with .class }} class="{{ . }}"{{ end }}{{ with .title }} aria-label="{{ . }}"{{ end }}>
  <path d="M23.268 5.313c-.35-2.578-2.617-4.61-5.304-5.004C17.51.242 15.792 0 11.813 0h-.03c-3.98 0-4.835.242-5.288.309C3.882.692 1.496 2.518.917 5.127.64 6.412.61 7.837.661 9.143c.074 1.874.088 3.745.26 5.611.118 1.24.325 2.47.62 3.68.55 2.237 2.777 4.098 4.96 4.857 2.336.792 4.849.923 7.256.38.265-.061.527-.132.786-.213.585-.184 1.27-.39 1.774-.753a.057.057 0 0 0 .023-.043v-1.809a.052.052 0 0 0-.02-.041.053.053 0 0 0-.046-.01 20.282 20.282 0 0 1-4.709.547c-2.73 0-3.463-1.284-3.674-1.818a5.593 5.593 0 0 1-.319-1.433.053.053 0 0 1 .066-.054 19.648 19.648 0 0 0 4.581.536h.344c1.587 0 3.177-.088 4.755-.283a.711.711 0 0 0 .141-.025c2.533-.48 4.943-1.981 5.19-6.471.008-.155.029-1.625.029-1.785 0-.547.199-3.873-.038-5.922zM19.903 13.2h-2.538v-4.593c0-1.156-.487-1.744-1.462-1.744-1.077 0-1.618.697-1.618 2.074v2.51h-2.523V8.937c0-1.377-.541-2.074-1.618-2.074-.975 0-1.462.588-1.462 1.744V13.2H6.145V8.756c0-1.156.294-2.076.882-2.76.608-.684 1.404-1.035 2.39-1.035 1.14 0 2.005.437 2.583 1.311l.557.929.556-.929c.578-.874 1.443-1.311 2.583-1.311.986 0 1.782.35 2.39 1.035.588.684.882 1.604.882 2.76V13.2z"/>
</svg>
